<mxfile host="app.diagrams.net" agent="Mozilla/5.0 (Windows NT 10.0; Win64; x64) AppleWebKit/537.36 (KHTML, like Gecko) Chrome/130.0.0.0 Safari/537.36" version="24.8.3">
  <diagram id="C5RBs43oDa-KdzZeNtuy" name="Page-1">
    <mxGraphModel dx="2261" dy="738" grid="1" gridSize="10" guides="1" tooltips="1" connect="1" arrows="1" fold="1" page="1" pageScale="1" pageWidth="827" pageHeight="1169" math="0" shadow="0">
      <root>
        <mxCell id="WIyWlLk6GJQsqaUBKTNV-0" />
        <mxCell id="WIyWlLk6GJQsqaUBKTNV-1" parent="WIyWlLk6GJQsqaUBKTNV-0" />
        <mxCell id="vkkAxQIPYwGILYubdVrP-0" value="Data" style="swimlane;whiteSpace=wrap;html=1;" vertex="1" parent="WIyWlLk6GJQsqaUBKTNV-1">
          <mxGeometry x="-350" y="130" width="100" height="90" as="geometry" />
        </mxCell>
        <mxCell id="vkkAxQIPYwGILYubdVrP-1" value="&lt;b&gt;GetData()&lt;/b&gt;" style="text;html=1;align=center;verticalAlign=middle;resizable=0;points=[];autosize=1;strokeColor=none;fillColor=none;" vertex="1" parent="vkkAxQIPYwGILYubdVrP-0">
          <mxGeometry x="10" y="40" width="80" height="30" as="geometry" />
        </mxCell>
        <mxCell id="vkkAxQIPYwGILYubdVrP-8" value="&lt;p style=&quot;margin:0px;margin-top:4px;text-align:center;&quot;&gt;&lt;b&gt;RelatedNode&lt;/b&gt;&lt;/p&gt;&lt;hr size=&quot;1&quot; style=&quot;border-style:solid;&quot;&gt;&lt;p style=&quot;margin:0px;margin-left:4px;&quot;&gt;+ adNode:&amp;nbsp;&lt;span style=&quot;background-color: initial;&quot;&gt;Node&lt;/span&gt;&lt;/p&gt;&lt;p style=&quot;margin:0px;margin-left:4px;&quot;&gt;+ link:&amp;nbsp;&lt;span style=&quot;background-color: initial;&quot;&gt;Link&lt;/span&gt;&lt;span style=&quot;background-color: initial;&quot;&gt;&amp;nbsp;&lt;/span&gt;&lt;span style=&quot;background-color: initial;&quot;&gt;&amp;nbsp;&lt;/span&gt;&lt;/p&gt;&lt;p style=&quot;margin:0px;margin-left:4px;&quot;&gt;+ g:&amp;nbsp;&lt;span style=&quot;background-color: initial;&quot;&gt;float&lt;/span&gt;&lt;span style=&quot;background-color: initial;&quot;&gt;&amp;nbsp;//인접노드인(adNode)까지의 이동비용(거리)&lt;/span&gt;&lt;/p&gt;&lt;hr size=&quot;1&quot; style=&quot;border-style:solid;&quot;&gt;&lt;p style=&quot;margin:0px;margin-left:4px;&quot;&gt;&lt;br&gt;&lt;/p&gt;" style="verticalAlign=top;align=left;overflow=fill;html=1;whiteSpace=wrap;" vertex="1" parent="WIyWlLk6GJQsqaUBKTNV-1">
          <mxGeometry x="-470" y="40" width="300" height="80" as="geometry" />
        </mxCell>
        <mxCell id="vkkAxQIPYwGILYubdVrP-12" value="&lt;p style=&quot;margin:0px;margin-top:4px;text-align:center;&quot;&gt;&lt;b&gt;Node&lt;/b&gt;&lt;/p&gt;&lt;hr size=&quot;1&quot; style=&quot;border-style:solid;&quot;&gt;&lt;p style=&quot;margin:0px;margin-left:4px;&quot;&gt;+ h: float&lt;/p&gt;&lt;p style=&quot;margin:0px;margin-left:4px;&quot;&gt;+ f: float&lt;/p&gt;&lt;p style=&quot;margin:0px;margin-left:4px;&quot;&gt;+ nodeName: string&lt;/p&gt;&lt;p style=&quot;margin:0px;margin-left:4px;&quot;&gt;+ nodePos: Vector3&lt;/p&gt;&lt;p style=&quot;margin:0px;margin-left:4px;&quot;&gt;+ adNodeList:&amp;nbsp;&lt;span style=&quot;background-color: initial;&quot;&gt;List&amp;lt;RelatedNode&amp;gt;&lt;/span&gt;&lt;/p&gt;&lt;hr size=&quot;1&quot; style=&quot;border-style:solid;&quot;&gt;&lt;p style=&quot;margin:0px;margin-left:4px;&quot;&gt;+ SetF(): void&lt;/p&gt;&lt;p style=&quot;margin:0px;margin-left:4px;&quot;&gt;+ SetH(): void&lt;/p&gt;" style="verticalAlign=top;align=left;overflow=fill;html=1;whiteSpace=wrap;" vertex="1" parent="WIyWlLk6GJQsqaUBKTNV-1">
          <mxGeometry x="-130" y="190" width="200" height="160" as="geometry" />
        </mxCell>
        <mxCell id="vkkAxQIPYwGILYubdVrP-15" value="&lt;p style=&quot;margin:0px;margin-top:4px;text-align:center;&quot;&gt;&lt;b&gt;Link&lt;/b&gt;&lt;/p&gt;&lt;hr size=&quot;1&quot; style=&quot;border-style:solid;&quot;&gt;&lt;p style=&quot;margin:0px;margin-left:4px;&quot;&gt;+ startNode: Node&lt;/p&gt;&lt;p style=&quot;margin:0px;margin-left:4px;&quot;&gt;+ endNode: Node&lt;/p&gt;&lt;hr size=&quot;1&quot; style=&quot;border-style:solid;&quot;&gt;&lt;p style=&quot;margin:0px;margin-left:4px;&quot;&gt;+ SetLinkPosition(Vector3 startPos, Vector3 endPos): void&lt;/p&gt;" style="verticalAlign=top;align=left;overflow=fill;html=1;whiteSpace=wrap;" vertex="1" parent="WIyWlLk6GJQsqaUBKTNV-1">
          <mxGeometry x="-720" y="240" width="320" height="110" as="geometry" />
        </mxCell>
        <mxCell id="vkkAxQIPYwGILYubdVrP-17" value="" style="endArrow=open;endFill=1;endSize=12;html=1;rounded=0;exitX=0;exitY=0.5;exitDx=0;exitDy=0;entryX=0.5;entryY=0;entryDx=0;entryDy=0;" edge="1" parent="WIyWlLk6GJQsqaUBKTNV-1" source="vkkAxQIPYwGILYubdVrP-8" target="vkkAxQIPYwGILYubdVrP-15">
          <mxGeometry width="160" relative="1" as="geometry">
            <mxPoint x="-290" y="390" as="sourcePoint" />
            <mxPoint y="279" as="targetPoint" />
            <Array as="points">
              <mxPoint x="-560" y="80" />
            </Array>
          </mxGeometry>
        </mxCell>
        <mxCell id="vkkAxQIPYwGILYubdVrP-18" value="" style="endArrow=open;endFill=1;endSize=12;html=1;rounded=0;entryX=-0.02;entryY=0.8;entryDx=0;entryDy=0;exitX=1;exitY=0.7;exitDx=0;exitDy=0;entryPerimeter=0;exitPerimeter=0;" edge="1" parent="WIyWlLk6GJQsqaUBKTNV-1" source="vkkAxQIPYwGILYubdVrP-15" target="vkkAxQIPYwGILYubdVrP-12">
          <mxGeometry width="160" relative="1" as="geometry">
            <mxPoint x="-250" y="420" as="sourcePoint" />
            <mxPoint x="60" y="310" as="targetPoint" />
          </mxGeometry>
        </mxCell>
        <mxCell id="vkkAxQIPYwGILYubdVrP-22" value="&lt;p style=&quot;margin:0px;margin-top:4px;text-align:center;&quot;&gt;&lt;b&gt;MonoBehaviou&lt;/b&gt;&lt;/p&gt;&lt;hr size=&quot;1&quot; style=&quot;border-style:solid;&quot;&gt;&lt;div style=&quot;height:2px;&quot;&gt;&lt;/div&gt;" style="verticalAlign=top;align=left;overflow=fill;html=1;whiteSpace=wrap;" vertex="1" parent="WIyWlLk6GJQsqaUBKTNV-1">
          <mxGeometry x="-430" y="400" width="140" height="60" as="geometry" />
        </mxCell>
        <mxCell id="vkkAxQIPYwGILYubdVrP-23" value="&lt;p style=&quot;margin:0px;margin-top:4px;text-align:center;&quot;&gt;&lt;b&gt;NodeObject&lt;/b&gt;&lt;/p&gt;&lt;hr size=&quot;1&quot; style=&quot;border-style:solid;&quot;&gt;&lt;p style=&quot;margin:0px;margin-left:4px;&quot;&gt;+node : Node&lt;/p&gt;&lt;hr size=&quot;1&quot; style=&quot;border-style:solid;&quot;&gt;&lt;p style=&quot;margin:0px;margin-left:4px;&quot;&gt;+ CreateNode():void //씬에 배치될 노드오브젝트 생성&lt;/p&gt;&lt;p style=&quot;margin:0px;margin-left:4px;&quot;&gt;+ SetNodeName(string name): void&lt;/p&gt;&lt;p style=&quot;margin:0px;margin-left:4px;&quot;&gt;+ UpdateNodePos(Vector3 pos) : void&lt;/p&gt;" style="verticalAlign=top;align=left;overflow=fill;html=1;whiteSpace=wrap;" vertex="1" parent="WIyWlLk6GJQsqaUBKTNV-1">
          <mxGeometry x="-230" y="400" width="300" height="140" as="geometry" />
        </mxCell>
        <mxCell id="vkkAxQIPYwGILYubdVrP-28" value="&lt;p style=&quot;margin:0px;margin-top:4px;text-align:center;&quot;&gt;&lt;b&gt;LinkObject&lt;/b&gt;&lt;/p&gt;&lt;hr size=&quot;1&quot; style=&quot;border-style:solid;&quot;&gt;&lt;p style=&quot;margin:0px;margin-left:4px;&quot;&gt;+ link: Link&lt;/p&gt;&lt;p style=&quot;margin:0px;margin-left:4px;&quot;&gt;+ lineRenderer: LineRenderer&lt;/p&gt;&lt;hr size=&quot;1&quot; style=&quot;border-style:solid;&quot;&gt;&lt;p style=&quot;margin:0px;margin-left:4px;&quot;&gt;+ CreateLink(): void&lt;/p&gt;&lt;p style=&quot;margin:0px;margin-left:4px;&quot;&gt;+ CreateLineRenderer(): void&lt;/p&gt;&lt;p style=&quot;margin:0px;margin-left:4px;&quot;&gt;+ SetLineRenderer(): void&lt;/p&gt;" style="verticalAlign=top;align=left;overflow=fill;html=1;whiteSpace=wrap;" vertex="1" parent="WIyWlLk6GJQsqaUBKTNV-1">
          <mxGeometry x="-720" y="400" width="230" height="130" as="geometry" />
        </mxCell>
        <mxCell id="vkkAxQIPYwGILYubdVrP-29" value="" style="endArrow=open;endFill=1;endSize=12;html=1;rounded=0;exitX=0.518;exitY=0;exitDx=0;exitDy=0;entryX=0.372;entryY=0.982;entryDx=0;entryDy=0;entryPerimeter=0;exitPerimeter=0;" edge="1" parent="WIyWlLk6GJQsqaUBKTNV-1" source="vkkAxQIPYwGILYubdVrP-28" target="vkkAxQIPYwGILYubdVrP-15">
          <mxGeometry width="160" relative="1" as="geometry">
            <mxPoint x="-300" y="240" as="sourcePoint" />
            <mxPoint x="-140" y="240" as="targetPoint" />
          </mxGeometry>
        </mxCell>
        <mxCell id="vkkAxQIPYwGILYubdVrP-30" value="" style="endArrow=open;endFill=1;endSize=12;html=1;rounded=0;exitX=0.5;exitY=0;exitDx=0;exitDy=0;entryX=0.25;entryY=1;entryDx=0;entryDy=0;" edge="1" parent="WIyWlLk6GJQsqaUBKTNV-1" source="vkkAxQIPYwGILYubdVrP-23" target="vkkAxQIPYwGILYubdVrP-12">
          <mxGeometry width="160" relative="1" as="geometry">
            <mxPoint x="-300" y="240" as="sourcePoint" />
            <mxPoint x="-140" y="330" as="targetPoint" />
          </mxGeometry>
        </mxCell>
        <mxCell id="vkkAxQIPYwGILYubdVrP-31" value="&lt;p style=&quot;margin:0px;margin-top:4px;text-align:center;&quot;&gt;&lt;b&gt;LineRenderer&lt;/b&gt;&lt;/p&gt;&lt;hr size=&quot;1&quot; style=&quot;border-style:solid;&quot;&gt;&lt;div style=&quot;height:2px;&quot;&gt;&lt;/div&gt;&lt;hr size=&quot;1&quot; style=&quot;border-style:solid;&quot;&gt;&lt;div style=&quot;height:2px;&quot;&gt;&lt;/div&gt;" style="verticalAlign=top;align=left;overflow=fill;html=1;whiteSpace=wrap;" vertex="1" parent="WIyWlLk6GJQsqaUBKTNV-1">
          <mxGeometry x="-720" y="585" width="140" height="60" as="geometry" />
        </mxCell>
        <mxCell id="vkkAxQIPYwGILYubdVrP-32" value="" style="endArrow=open;endFill=1;endSize=12;html=1;rounded=0;exitX=0.25;exitY=1;exitDx=0;exitDy=0;entryX=0.407;entryY=-0.017;entryDx=0;entryDy=0;entryPerimeter=0;" edge="1" parent="WIyWlLk6GJQsqaUBKTNV-1" source="vkkAxQIPYwGILYubdVrP-28" target="vkkAxQIPYwGILYubdVrP-31">
          <mxGeometry width="160" relative="1" as="geometry">
            <mxPoint x="-300" y="340" as="sourcePoint" />
            <mxPoint x="-663" y="570" as="targetPoint" />
          </mxGeometry>
        </mxCell>
        <mxCell id="vkkAxQIPYwGILYubdVrP-34" value="" style="endArrow=open;endFill=1;endSize=12;html=1;rounded=0;exitX=0.9;exitY=1;exitDx=0;exitDy=0;exitPerimeter=0;entryX=0;entryY=0.25;entryDx=0;entryDy=0;" edge="1" parent="WIyWlLk6GJQsqaUBKTNV-1" source="vkkAxQIPYwGILYubdVrP-8" target="vkkAxQIPYwGILYubdVrP-12">
          <mxGeometry width="160" relative="1" as="geometry">
            <mxPoint x="-300" y="240" as="sourcePoint" />
            <mxPoint x="-140" y="240" as="targetPoint" />
            <Array as="points">
              <mxPoint x="-200" y="230" />
            </Array>
          </mxGeometry>
        </mxCell>
        <mxCell id="vkkAxQIPYwGILYubdVrP-35" value="" style="endArrow=open;endFill=1;endSize=12;html=1;rounded=0;exitX=0.25;exitY=0;exitDx=0;exitDy=0;entryX=1;entryY=0.75;entryDx=0;entryDy=0;" edge="1" parent="WIyWlLk6GJQsqaUBKTNV-1" source="vkkAxQIPYwGILYubdVrP-12" target="vkkAxQIPYwGILYubdVrP-8">
          <mxGeometry width="160" relative="1" as="geometry">
            <mxPoint x="-300" y="240" as="sourcePoint" />
            <mxPoint x="-140" y="240" as="targetPoint" />
            <Array as="points">
              <mxPoint x="-80" y="100" />
            </Array>
          </mxGeometry>
        </mxCell>
        <mxCell id="vkkAxQIPYwGILYubdVrP-36" value="&lt;p style=&quot;margin:0px;margin-top:4px;text-align:center;&quot;&gt;&lt;b&gt;DataManager&lt;/b&gt;&lt;/p&gt;&lt;hr size=&quot;1&quot; style=&quot;border-style:solid;&quot;&gt;&lt;p style=&quot;margin:0px;margin-left:4px;&quot;&gt;+ nodeLIst: List&amp;lt;NodeObject&amp;gt;&lt;/p&gt;&lt;p style=&quot;margin:0px;margin-left:4px;&quot;&gt;+ linkList: List&amp;lt;LinkObject&amp;gt;&lt;/p&gt;&lt;p style=&quot;margin:0px;margin-left:4px;&quot;&gt;+ dicNode: Dictionary&amp;lt;float, Node&amp;gt;//nodeId,node&lt;/p&gt;&lt;hr size=&quot;1&quot; style=&quot;border-style:solid;&quot;&gt;&lt;p style=&quot;margin:0px;margin-left:4px;&quot;&gt;+ SaveNode(): void //Node 정보 저장&lt;/p&gt;&lt;p style=&quot;margin:0px;margin-left:4px;&quot;&gt;+ SaveLink(): void //Link 정보 저장&lt;/p&gt;&lt;p style=&quot;margin:0px;margin-left:4px;&quot;&gt;+ LoadNode(): List&amp;lt;Node&amp;gt; //DB에 저장된 Node정보&lt;/p&gt;&lt;p style=&quot;margin:0px;margin-left:4px;&quot;&gt;+ LoadLink(): List&amp;lt;Link&amp;gt; //DB에 저장된 Link정보&lt;/p&gt;" style="verticalAlign=top;align=left;overflow=fill;html=1;whiteSpace=wrap;" vertex="1" parent="WIyWlLk6GJQsqaUBKTNV-1">
          <mxGeometry x="150" y="400" width="330" height="170" as="geometry" />
        </mxCell>
        <mxCell id="vkkAxQIPYwGILYubdVrP-37" value="" style="endArrow=open;endFill=1;endSize=12;html=1;rounded=0;entryX=0.691;entryY=1;entryDx=0;entryDy=0;entryPerimeter=0;exitX=0.279;exitY=0.994;exitDx=0;exitDy=0;exitPerimeter=0;" edge="1" parent="WIyWlLk6GJQsqaUBKTNV-1" source="vkkAxQIPYwGILYubdVrP-36" target="vkkAxQIPYwGILYubdVrP-28">
          <mxGeometry width="160" relative="1" as="geometry">
            <mxPoint x="240" y="560" as="sourcePoint" />
            <mxPoint x="-120" y="500" as="targetPoint" />
            <Array as="points">
              <mxPoint x="240" y="720" />
              <mxPoint x="-561" y="720" />
              <mxPoint x="-561" y="600" />
            </Array>
          </mxGeometry>
        </mxCell>
        <mxCell id="vkkAxQIPYwGILYubdVrP-38" value="" style="endArrow=open;endFill=1;endSize=12;html=1;rounded=0;exitX=0.027;exitY=0.994;exitDx=0;exitDy=0;exitPerimeter=0;entryX=0.75;entryY=1;entryDx=0;entryDy=0;" edge="1" parent="WIyWlLk6GJQsqaUBKTNV-1" source="vkkAxQIPYwGILYubdVrP-36" target="vkkAxQIPYwGILYubdVrP-23">
          <mxGeometry width="160" relative="1" as="geometry">
            <mxPoint x="-200" y="780" as="sourcePoint" />
            <mxPoint y="550" as="targetPoint" />
            <Array as="points">
              <mxPoint x="160" y="600" />
              <mxPoint x="-5" y="600" />
            </Array>
          </mxGeometry>
        </mxCell>
        <mxCell id="vkkAxQIPYwGILYubdVrP-39" value="&lt;p style=&quot;margin:0px;margin-top:4px;text-align:center;&quot;&gt;&lt;b&gt;NodeLinkGenerator&lt;/b&gt;&lt;/p&gt;&lt;hr size=&quot;1&quot; style=&quot;border-style:solid;&quot;&gt;&lt;p style=&quot;margin:0px;margin-left:4px;&quot;&gt;# dataManager: DataManager&lt;/p&gt;&lt;hr size=&quot;1&quot; style=&quot;border-style:solid;&quot;&gt;&lt;p style=&quot;margin:0px;margin-left:4px;&quot;&gt;+ CreateNode(List&amp;lt;Node&amp;gt; nodeList): void //노드 오브젝트 생성&lt;/p&gt;&lt;p style=&quot;margin:0px;margin-left:4px;&quot;&gt;+ CreateLink(List&amp;lt;List&amp;gt; linkList): void&lt;/p&gt;&lt;p style=&quot;margin:0px;margin-left:4px;&quot;&gt;+ CreateNewNode() //기본 노드&amp;nbsp; 생성&lt;/p&gt;&lt;p style=&quot;margin:0px;margin-left:4px;&quot;&gt;&lt;br&gt;&lt;/p&gt;" style="verticalAlign=top;align=left;overflow=fill;html=1;whiteSpace=wrap;" vertex="1" parent="WIyWlLk6GJQsqaUBKTNV-1">
          <mxGeometry x="150" y="190" width="360" height="120" as="geometry" />
        </mxCell>
        <mxCell id="vkkAxQIPYwGILYubdVrP-42" value="" style="endArrow=block;endSize=16;endFill=0;html=1;rounded=0;exitX=1;exitY=0.75;exitDx=0;exitDy=0;entryX=0;entryY=1;entryDx=0;entryDy=0;" edge="1" parent="WIyWlLk6GJQsqaUBKTNV-1" source="vkkAxQIPYwGILYubdVrP-28" target="vkkAxQIPYwGILYubdVrP-22">
          <mxGeometry width="160" relative="1" as="geometry">
            <mxPoint x="-280" y="400" as="sourcePoint" />
            <mxPoint x="-120" y="400" as="targetPoint" />
            <Array as="points">
              <mxPoint x="-430" y="498" />
            </Array>
          </mxGeometry>
        </mxCell>
        <mxCell id="vkkAxQIPYwGILYubdVrP-43" value="" style="endArrow=block;endSize=16;endFill=0;html=1;rounded=0;exitX=0;exitY=0.75;exitDx=0;exitDy=0;entryX=0.814;entryY=1;entryDx=0;entryDy=0;entryPerimeter=0;" edge="1" parent="WIyWlLk6GJQsqaUBKTNV-1" source="vkkAxQIPYwGILYubdVrP-23" target="vkkAxQIPYwGILYubdVrP-22">
          <mxGeometry width="160" relative="1" as="geometry">
            <mxPoint x="-280" y="400" as="sourcePoint" />
            <mxPoint x="-120" y="400" as="targetPoint" />
            <Array as="points">
              <mxPoint x="-316" y="505" />
            </Array>
          </mxGeometry>
        </mxCell>
        <mxCell id="vkkAxQIPYwGILYubdVrP-44" value="Extends" style="endArrow=block;endSize=16;endFill=0;html=1;rounded=0;exitX=0.997;exitY=0.427;exitDx=0;exitDy=0;exitPerimeter=0;entryX=0.25;entryY=1;entryDx=0;entryDy=0;" edge="1" parent="WIyWlLk6GJQsqaUBKTNV-1" source="vkkAxQIPYwGILYubdVrP-15" target="vkkAxQIPYwGILYubdVrP-0">
          <mxGeometry width="160" relative="1" as="geometry">
            <mxPoint x="-280" y="400" as="sourcePoint" />
            <mxPoint x="-120" y="400" as="targetPoint" />
            <Array as="points">
              <mxPoint x="-325" y="287" />
            </Array>
          </mxGeometry>
        </mxCell>
        <mxCell id="vkkAxQIPYwGILYubdVrP-45" value="Extends" style="endArrow=block;endSize=16;endFill=0;html=1;rounded=0;exitX=0;exitY=0.5;exitDx=0;exitDy=0;entryX=0.5;entryY=1;entryDx=0;entryDy=0;" edge="1" parent="WIyWlLk6GJQsqaUBKTNV-1" source="vkkAxQIPYwGILYubdVrP-12" target="vkkAxQIPYwGILYubdVrP-0">
          <mxGeometry width="160" relative="1" as="geometry">
            <mxPoint x="-280" y="400" as="sourcePoint" />
            <mxPoint x="-120" y="400" as="targetPoint" />
            <Array as="points">
              <mxPoint x="-300" y="270" />
            </Array>
          </mxGeometry>
        </mxCell>
        <mxCell id="vkkAxQIPYwGILYubdVrP-46" value="MonoSingleton" style="swimlane;fontStyle=1;align=center;verticalAlign=top;childLayout=stackLayout;horizontal=1;startSize=26;horizontalStack=0;resizeParent=1;resizeParentMax=0;resizeLast=0;collapsible=1;marginBottom=0;whiteSpace=wrap;html=1;" vertex="1" parent="WIyWlLk6GJQsqaUBKTNV-1">
          <mxGeometry x="-493" y="559" width="160" height="86" as="geometry">
            <mxRectangle x="-500" y="559" width="120" height="30" as="alternateBounds" />
          </mxGeometry>
        </mxCell>
        <mxCell id="vkkAxQIPYwGILYubdVrP-47" value="+ instance: static" style="text;strokeColor=none;fillColor=none;align=left;verticalAlign=top;spacingLeft=4;spacingRight=4;overflow=hidden;rotatable=0;points=[[0,0.5],[1,0.5]];portConstraint=eastwest;whiteSpace=wrap;html=1;" vertex="1" parent="vkkAxQIPYwGILYubdVrP-46">
          <mxGeometry y="26" width="160" height="26" as="geometry" />
        </mxCell>
        <mxCell id="vkkAxQIPYwGILYubdVrP-48" value="" style="line;strokeWidth=1;fillColor=none;align=left;verticalAlign=middle;spacingTop=-1;spacingLeft=3;spacingRight=3;rotatable=0;labelPosition=right;points=[];portConstraint=eastwest;strokeColor=inherit;" vertex="1" parent="vkkAxQIPYwGILYubdVrP-46">
          <mxGeometry y="52" width="160" height="8" as="geometry" />
        </mxCell>
        <mxCell id="vkkAxQIPYwGILYubdVrP-49" value="+ Instance():T" style="text;strokeColor=none;fillColor=none;align=left;verticalAlign=top;spacingLeft=4;spacingRight=4;overflow=hidden;rotatable=0;points=[[0,0.5],[1,0.5]];portConstraint=eastwest;whiteSpace=wrap;html=1;" vertex="1" parent="vkkAxQIPYwGILYubdVrP-46">
          <mxGeometry y="60" width="160" height="26" as="geometry" />
        </mxCell>
        <mxCell id="vkkAxQIPYwGILYubdVrP-52" value="Extends" style="endArrow=block;endSize=16;endFill=0;html=1;rounded=0;exitX=0.75;exitY=0;exitDx=0;exitDy=0;entryX=0.379;entryY=0.95;entryDx=0;entryDy=0;entryPerimeter=0;" edge="1" parent="WIyWlLk6GJQsqaUBKTNV-1" source="vkkAxQIPYwGILYubdVrP-46" target="vkkAxQIPYwGILYubdVrP-22">
          <mxGeometry width="160" relative="1" as="geometry">
            <mxPoint x="-280" y="600" as="sourcePoint" />
            <mxPoint x="-120" y="600" as="targetPoint" />
          </mxGeometry>
        </mxCell>
        <mxCell id="vkkAxQIPYwGILYubdVrP-53" value="Extends" style="endArrow=block;endSize=16;endFill=0;html=1;rounded=0;exitX=0.152;exitY=1.012;exitDx=0;exitDy=0;exitPerimeter=0;entryX=1;entryY=0.5;entryDx=0;entryDy=0;" edge="1" parent="WIyWlLk6GJQsqaUBKTNV-1" source="vkkAxQIPYwGILYubdVrP-36" target="vkkAxQIPYwGILYubdVrP-49">
          <mxGeometry width="160" relative="1" as="geometry">
            <mxPoint x="-357.9099999999999" y="790" as="sourcePoint" />
            <mxPoint x="-362.09999999999997" y="642.998" as="targetPoint" />
            <Array as="points">
              <mxPoint x="200" y="630" />
            </Array>
          </mxGeometry>
        </mxCell>
        <mxCell id="vkkAxQIPYwGILYubdVrP-54" value="" style="endArrow=open;endFill=1;endSize=12;html=1;rounded=0;exitX=0.5;exitY=0;exitDx=0;exitDy=0;" edge="1" parent="WIyWlLk6GJQsqaUBKTNV-1" source="vkkAxQIPYwGILYubdVrP-36">
          <mxGeometry width="160" relative="1" as="geometry">
            <mxPoint x="-280" y="600" as="sourcePoint" />
            <mxPoint x="315" y="310" as="targetPoint" />
          </mxGeometry>
        </mxCell>
      </root>
    </mxGraphModel>
  </diagram>
</mxfile>
